<?xml version="1.0" standalone="no"?>
<!DOCTYPE svg PUBLIC "-//W3C//DTD SVG 20010904//EN"
 "http://www.w3.org/TR/2001/REC-SVG-20010904/DTD/svg10.dtd">
<svg version="1.0" xmlns="http://www.w3.org/2000/svg"
 width="512.000000pt" height="512.000000pt" viewBox="0 0 512.000000 512.000000"
 preserveAspectRatio="xMidYMid meet">
<metadata>
Created by potrace 1.14, written by Peter Selinger 2001-2017
</metadata>
<g transform="translate(0.000000,512.000000) scale(0.100000,-0.100000)"
fill="#000000" stroke="none">
<path d="M5 5108 c-3 -7 -4 -1158 -3 -2558 l3 -2545 2555 0 2555 0 0 2555 0
2555 -2553 3 c-2037 2 -2554 0 -2557 -10z m1016 -370 c11 -98 27 -210 41 -283
6 -33 14 -87 18 -120 19 -166 88 -312 156 -329 13 -4 24 -11 24 -16 0 -6 9
-10 19 -10 11 0 26 -7 35 -15 8 -8 26 -15 40 -15 14 0 43 -6 63 -14 21 -8 74
-17 118 -20 43 -3 83 -10 88 -15 13 -13 -21 -41 -50 -41 -14 0 -37 -6 -51 -14
-15 -8 -61 -31 -103 -50 -42 -19 -82 -42 -89 -51 -7 -8 -17 -15 -22 -15 -13 0
-108 -95 -108 -108 0 -5 -7 -12 -15 -16 -8 -3 -15 -14 -15 -24 0 -10 -6 -24
-12 -30 -16 -16 -36 -95 -49 -187 -5 -38 -13 -81 -19 -95 -5 -14 -12 -58 -15
-98 -4 -39 -11 -74 -15 -77 -4 -3 -11 -50 -15 -105 -4 -55 -11 -97 -16 -94 -5
3 -9 16 -9 29 0 13 -5 25 -11 27 -7 2 -15 39 -19 83 -3 44 -12 90 -18 102 -7
12 -12 48 -12 81 0 33 -7 76 -15 95 -8 20 -15 58 -15 84 0 26 -7 57 -15 67 -8
11 -15 34 -15 52 0 17 -7 37 -15 44 -8 7 -15 21 -15 32 0 10 -7 21 -15 24 -8
4 -15 11 -15 17 0 21 -108 115 -172 149 -24 13 -44 26 -46 31 -2 4 -9 7 -15 7
-7 1 -30 9 -52 20 -22 11 -50 19 -62 20 -12 0 -28 6 -35 13 -7 7 -22 16 -32
20 -31 12 -15 17 85 26 95 8 130 18 204 53 55 26 79 41 88 56 4 6 15 12 22 12
8 0 15 6 15 14 0 8 7 16 15 20 8 3 15 14 15 24 0 11 7 25 15 32 8 7 15 27 15
44 1 17 7 42 15 56 8 14 14 53 15 91 0 36 5 70 11 76 6 6 14 60 18 119 5 60
13 122 20 137 6 16 11 57 11 91 0 58 6 83 18 71 3 -3 9 -38 13 -77z m2148
-154 c1 -39 8 -93 16 -120 8 -27 15 -83 15 -124 1 -41 5 -95 11 -120 6 -25 14
-88 18 -140 5 -52 14 -108 20 -123 6 -16 11 -54 11 -86 0 -32 7 -80 15 -107 8
-27 15 -70 15 -96 0 -26 5 -59 11 -75 6 -15 15 -55 19 -88 10 -71 42 -189 53
-193 4 -2 7 -10 7 -18 0 -16 40 -105 62 -138 24 -35 107 -114 128 -121 11 -3
20 -11 20 -16 0 -5 7 -9 15 -9 8 0 15 -4 15 -9 0 -10 101 -61 119 -61 6 0 11
-4 11 -10 0 -5 11 -10 25 -10 14 0 42 -9 62 -20 21 -11 50 -20 66 -20 16 0 37
-4 47 -10 10 -5 60 -14 111 -20 52 -5 126 -14 164 -20 39 -5 109 -9 157 -9 48
-1 89 -5 92 -10 4 -5 60 -12 126 -16 125 -8 156 -25 45 -25 -36 0 -82 -6 -102
-14 -21 -8 -62 -17 -92 -20 -29 -3 -58 -9 -65 -14 -6 -5 -32 -13 -58 -16 -26
-4 -50 -11 -53 -17 -4 -5 -18 -9 -33 -9 -15 0 -40 -7 -56 -15 -15 -8 -34 -15
-42 -15 -14 0 -66 -20 -117 -46 -16 -8 -34 -14 -40 -14 -15 0 -96 -40 -103
-51 -3 -5 -13 -9 -23 -9 -10 0 -26 -9 -36 -20 -10 -11 -24 -20 -32 -20 -7 0
-13 -4 -13 -9 0 -5 -12 -13 -27 -19 -16 -5 -41 -21 -56 -36 -15 -14 -30 -26
-32 -26 -10 0 -135 -128 -135 -139 0 -6 -4 -11 -9 -11 -11 0 -24 -22 -66 -110
-36 -75 -41 -87 -58 -150 -33 -126 -47 -190 -47 -222 0 -18 -6 -42 -14 -53 -7
-11 -15 -57 -18 -104 -3 -51 -9 -86 -16 -89 -8 -2 -12 -28 -12 -69 0 -36 -6
-79 -14 -96 -8 -18 -16 -68 -19 -112 -2 -46 -9 -81 -16 -83 -7 -2 -11 -31 -11
-75 -1 -44 -6 -82 -15 -97 -9 -16 -14 -55 -15 -107 0 -45 -4 -84 -9 -88 -6 -3
-13 -27 -16 -53 -3 -26 -9 -58 -12 -72 -6 -25 -6 -25 -13 5 -4 17 -8 58 -9 91
0 34 -8 78 -16 97 -8 20 -15 57 -15 81 0 25 -7 71 -15 103 -8 31 -15 74 -15
95 0 20 -7 63 -15 95 -8 31 -15 78 -15 104 0 25 -4 59 -10 75 -5 16 -14 63
-19 104 -15 120 -31 211 -47 261 -8 26 -14 62 -14 82 0 19 -7 48 -15 63 -8 16
-15 45 -15 64 0 19 -7 44 -15 54 -8 11 -15 30 -15 42 0 13 -7 29 -15 38 -8 8
-15 26 -15 40 0 14 -5 26 -10 26 -6 0 -15 10 -20 23 -6 12 -16 31 -22 42 -20
32 -191 201 -210 208 -10 4 -18 11 -18 17 0 5 -6 10 -14 10 -8 0 -21 6 -28 13
-7 7 -33 24 -58 38 -25 13 -51 30 -58 37 -7 6 -22 12 -32 12 -10 0 -20 3 -22
8 -1 4 -30 18 -63 31 -33 12 -73 29 -90 35 -16 7 -57 21 -90 31 -33 9 -67 21
-76 26 -9 4 -34 11 -55 14 -22 4 -58 13 -82 21 -23 8 -62 14 -85 14 -56 0
-218 30 -212 39 2 5 100 11 217 14 117 3 245 10 283 16 39 6 102 15 140 21
114 16 178 31 199 46 11 8 33 14 48 14 16 0 28 4 28 10 0 5 17 14 38 20 20 6
51 20 67 30 17 11 39 24 50 29 11 5 30 19 42 30 12 12 25 21 28 21 10 0 75 74
75 86 0 7 7 14 15 18 8 3 15 15 15 26 0 11 7 23 15 26 8 4 15 18 15 33 0 14 7
35 15 45 8 11 15 33 15 49 0 15 5 38 12 50 6 12 15 48 19 82 4 33 12 80 18
105 12 57 40 222 45 275 2 22 9 72 15 110 6 39 17 124 25 190 8 66 20 156 26
200 6 44 15 131 21 194 7 88 14 117 27 127 24 17 30 -3 31 -92z m-1449 -2490
c6 -6 14 -52 19 -102 6 -51 13 -97 16 -103 4 -6 11 -42 16 -81 5 -39 16 -82
24 -94 8 -13 15 -33 15 -44 0 -11 7 -23 15 -26 8 -4 15 -12 15 -19 0 -15 87
-94 129 -117 18 -10 43 -18 55 -18 12 0 30 -6 41 -14 12 -8 64 -15 133 -19 77
-5 122 -12 145 -24 l32 -17 -30 -7 c-16 -4 -46 -7 -65 -8 -19 -1 -44 -8 -54
-16 -11 -8 -30 -15 -42 -15 -12 0 -27 -7 -34 -15 -7 -8 -25 -15 -41 -15 -16 0
-29 -4 -29 -9 0 -5 -12 -14 -27 -20 -16 -6 -41 -20 -58 -31 -16 -11 -38 -23
-47 -26 -10 -4 -18 -13 -18 -20 0 -8 -7 -14 -15 -14 -8 0 -15 -7 -15 -15 0 -8
-4 -15 -9 -15 -11 0 -49 -63 -57 -95 -3 -14 -10 -25 -15 -25 -5 0 -9 -18 -9
-41 0 -23 -7 -55 -15 -72 -8 -18 -19 -68 -24 -112 -6 -44 -15 -105 -20 -135
-5 -30 -10 -75 -10 -100 -1 -48 -19 -94 -36 -92 -9 1 -17 49 -45 287 -6 50
-15 98 -20 107 -6 10 -10 32 -10 50 0 35 -39 161 -52 166 -4 2 -8 9 -8 16 0
12 -9 25 -58 81 -20 25 -106 85 -120 85 -6 0 -12 7 -16 15 -3 8 -17 15 -31 15
-14 0 -28 6 -31 14 -3 7 -23 16 -45 20 -21 3 -39 10 -39 15 0 4 -21 11 -46 15
-38 5 -74 24 -74 39 0 2 52 7 117 11 75 5 123 12 137 21 11 8 32 15 47 15 15
0 29 7 33 15 3 8 14 15 23 15 10 0 26 8 34 18 9 9 28 26 43 36 14 10 26 25 26
32 0 8 4 14 10 14 5 0 13 12 16 28 4 15 11 30 15 33 5 3 12 34 15 70 4 35 10
69 15 74 4 6 12 48 18 95 6 47 17 118 26 159 8 40 12 77 9 83 -3 5 -2 26 2 46
8 34 9 31 12 -33 2 -38 7 -74 12 -81z"/>
</g>
</svg>
